<?xml version="1.0" encoding="UTF-8" standalone="no"?>
<!-- Uploaded to: SVG Repo, www.svgrepo.com, Generator: SVG Repo Mixer Tools -->

<svg
   fill="#000000"
   width="800px"
   height="800px"
   viewBox="0 0 24 24"
   role="img"
   version="1.1"
   id="svg1"
   sodipodi:docname="xiaomi.svg"
   inkscape:version="1.3.2 (091e20e, 2023-11-25, custom)"
   xmlns:inkscape="http://www.inkscape.org/namespaces/inkscape"
   xmlns:sodipodi="http://sodipodi.sourceforge.net/DTD/sodipodi-0.dtd"
   xmlns="http://www.w3.org/2000/svg"
   xmlns:svg="http://www.w3.org/2000/svg">
  <defs
     id="defs1" />
  <sodipodi:namedview
     id="namedview1"
     pagecolor="#ffffff"
     bordercolor="#000000"
     borderopacity="0.25"
     inkscape:showpageshadow="2"
     inkscape:pageopacity="0.0"
     inkscape:pagecheckerboard="0"
     inkscape:deskcolor="#d1d1d1"
     inkscape:zoom="1.02625"
     inkscape:cx="400.48721"
     inkscape:cy="400"
     inkscape:window-width="1920"
     inkscape:window-height="1017"
     inkscape:window-x="1912"
     inkscape:window-y="-8"
     inkscape:window-maximized="1"
     inkscape:current-layer="svg1" />
  <title
     id="title1">Xiaomi icon</title>
  <path
     d="M19.96 20a.32.32 0 0 1-.32-.32V4.32a.32.32 0 0 1 .32-.32h3.71a.32.32 0 0 1 .33.32v15.36a.32.32 0 0 1-.33.32zm-6.22 0s-.3-.09-.3-.32v-9.43A2.18 2.18 0 0 0 11.24 8H4.3c-.4 0-.3.3-.3.3v11.38c0 .27-.3.32-.3.32H.33a.32.32 0 0 1-.33-.32V4.32A.32.32 0 0 1 .33 4h12.86a4.28 4.28 0 0 1 4.25 4.27l.01 11.41a.32.32 0 0 1-.32.32zm-6.9 0a.3.3 0 0 1-.3-.3v-9a.3.3 0 0 1 .3-.3h3.77a.3.3 0 0 1 .29.3v9a.3.3 0 0 1-.3.3z"
     id="path1"
     style="fill:#808080" />
</svg>
